# xmcd
#
# Track frame offsets: 
#        150
#        9780
#        21245
#        34797
#        46385
#        55212
#        73342
#        88677
#        100432
#        111635
#        123530
#        135447
#        146402
#        158132
#        170872
#        183082
#        195070
#        216987
#        229962
#        242795
#        253645
#        262742
#        275265
#        286140
#        297540
#
# Disc length: 4120 seconds
#
# Revision: 0
# Processed by: cddbd v1.5.2PL0 Copyright (c) Steve Scherf et al.
# Submitted via: ExactAudioCopy v1.3
#
DISCID=72101619
DTITLE=Various Artist - West Coast Downhome Harmonica
DYEAR=1900
DGENRE=Blues
TTITLE0=Garland The Great - Hello Miss Sims
TTITLE1=George Harmonica Smith - Further Up The Road
TTITLE2=George Harmonica Smith - You Don't Have To Go
TTITLE3=Harmonica Fats - Tore Up
TTITLE4=Harmonica Fats - Mama Mama Talk To Your Daughter
TTITLE5=George Harmonica Smith - The Blues Is My Roots
TTITLE6=George Harmonica Smith and Dave Alexander - Highwat 58
TTITLE7=George Harmonica Smith and Jack Dupree - Sharp harp
TTITLE8=Stormy Herman and His Midnight Ramblers - Bad Luck
TTITLE9=Stormy Herman and His Midnight Ramblers - The Jitterbug
TTITLE10=Ben Harper and The Chinco's - Here Comes My Gal
TTITLE11=Harmonica Fats - How Low Is Low
TTITLE12=Jimmy Slim and The Blues 5 - Sweet Chicago
TTITLE13=Ace Holder - Leave My Woman Alone
TTITLE14=Harmonica Fats - I Get So Tired
TTITLE15=Harmonica Fats - My Woman Didn't Come Home
TTITLE16=George Harmonica Smith - Blues For Rverend King
TTITLE17=Sir Arthur - Stop Cheating On Me
TTITLE18=Harmonica Fats - Driveway Blues
TTITLE19=Sweet Pea Walker - Sweet Pea
TTITLE20=Harmonica Slim - Come Back Home
TTITLE21=Pete Guitar Lewis - Harmonica Boogie
TTITLE22=Pete Guitar Lewis - Goin' Carzy
TTITLE23=George Harmonica Smith - Juicy Harmonica
TTITLE24=Johhny Dyer -Slipping and Sliding
EXTD=
EXTT0=
EXTT1=
EXTT2=
EXTT3=
EXTT4=
EXTT5=
EXTT6=
EXTT7=
EXTT8=
EXTT9=
EXTT10=
EXTT11=
EXTT12=
EXTT13=
EXTT14=
EXTT15=
EXTT16=
EXTT17=
EXTT18=
EXTT19=
EXTT20=
EXTT21=
EXTT22=
EXTT23=
EXTT24=
PLAYORDER=
